<?xml version="1.0" standalone="no"?>
<!DOCTYPE svg PUBLIC "-//W3C//DTD SVG 20010904//EN"
 "http://www.w3.org/TR/2001/REC-SVG-20010904/DTD/svg10.dtd">
<svg version="1.0" xmlns="http://www.w3.org/2000/svg"
 width="1392.000000pt" height="1392.000000pt" viewBox="0 0 1392.000000 1392.000000"
 preserveAspectRatio="xMidYMid meet">
<metadata>
Created by potrace 1.14, written by Peter Selinger 2001-2017
</metadata>
<g transform="translate(0.000000,1392.000000) scale(0.100000,-0.100000)"
fill="#000000" stroke="none">
<path d="M135 9750 c-4 -6 -8 -33 -9 -60 -4 -61 10 -75 79 -83 28 -4 61 -9 75
-11 14 -3 36 -7 50 -10 14 -2 43 -7 65 -11 54 -10 159 -43 221 -71 52 -23 134
-91 134 -112 0 -6 4 -12 8 -14 12 -5 71 -129 76 -160 3 -15 7 -31 9 -35 5 -8
11 -68 22 -198 7 -80 23 -886 24 -1230 l1 -150 133 1 c72 1 148 2 167 3 l36 1
3 208 c10 772 20 1115 34 1124 21 13 28 9 43 -29 8 -21 19 -47 24 -58 5 -11
48 -119 95 -240 47 -121 90 -229 95 -240 5 -11 19 -45 30 -75 11 -30 25 -64
30 -75 4 -11 61 -153 125 -315 64 -162 119 -297 121 -299 3 -3 792 -5 857 -2
14 1 16 5 8 20 -6 10 -40 101 -77 202 -36 101 -70 188 -75 194 -5 5 -9 15 -9
22 0 8 -36 111 -81 231 -187 506 -330 892 -375 1017 -14 39 -29 79 -34 90 -4
11 -17 45 -28 75 -11 30 -37 98 -56 150 -20 52 -36 101 -36 108 0 9 -44 12
-187 12 -487 2 -1002 10 -1445 25 -92 3 -149 1 -153 -5z"/>
<path d="M6386 9753 c-2 -2 -398 -14 -641 -18 -88 -2 -316 -4 -506 -4 l-346
-1 -18 -47 c-10 -27 -23 -61 -30 -78 -7 -16 -29 -75 -50 -130 -20 -55 -41
-111 -47 -125 -7 -14 -12 -27 -13 -30 -1 -3 -5 -12 -8 -20 -3 -8 -29 -76 -57
-150 -28 -74 -54 -144 -60 -155 -5 -11 -41 -105 -81 -210 -40 -104 -84 -221
-99 -260 -15 -38 -82 -214 -149 -390 -67 -176 -126 -329 -131 -340 -23 -50
-69 -179 -65 -183 3 -3 227 -6 292 -3 17 1 27 15 49 74 15 39 51 135 81 212
30 77 56 145 57 150 2 6 6 17 9 25 8 17 136 356 207 545 76 202 85 224 98 237
6 6 14 9 17 6 8 -8 18 -289 30 -923 4 -176 8 -322 11 -324 6 -7 783 -5 790 2
3 3 7 142 9 309 3 303 12 728 20 973 11 320 15 366 31 400 20 44 103 119 163
149 48 25 161 62 215 72 17 3 49 9 71 14 47 10 74 15 215 35 14 2 57 7 95 10
39 4 75 8 80 9 14 2 23 33 24 86 2 91 6 88 -136 86 -68 0 -126 -2 -127 -3z"/>
<path d="M7295 9748 c-11 -28 -11 -100 -1 -114 6 -8 25 -17 41 -19 17 -3 41
-8 53 -11 13 -2 43 -7 65 -11 36 -5 152 -28 182 -37 6 -1 29 -8 52 -15 23 -6
45 -16 48 -21 4 -6 10 -8 15 -5 5 3 11 1 15 -5 3 -5 15 -10 26 -10 28 0 130
-108 161 -171 46 -94 63 -164 73 -309 8 -109 23 -832 25 -1202 1 -187 3 -208
18 -209 53 -3 313 -1 317 2 2 2 6 164 9 359 4 302 10 599 19 905 2 61 4 70 21
70 19 0 24 -7 45 -57 6 -16 15 -38 21 -50 5 -13 48 -122 96 -243 47 -121 92
-233 99 -250 7 -16 54 -136 104 -265 51 -129 96 -244 102 -255 23 -51 69 -171
69 -181 0 -35 25 -37 428 -38 218 -1 411 1 428 4 l31 5 -58 155 c-32 85 -59
159 -59 163 0 5 -6 23 -14 40 -7 18 -24 59 -36 92 -12 33 -26 69 -30 80 -5 11
-29 76 -54 145 -24 69 -61 168 -81 220 -20 52 -37 100 -38 105 -2 6 -5 15 -8
20 -3 6 -12 30 -19 55 -7 25 -17 50 -20 55 -6 8 -29 72 -35 95 -1 3 -5 12 -8
20 -7 17 -130 351 -154 420 -9 25 -20 49 -25 55 -4 5 -8 17 -8 27 0 10 -4 26
-10 36 -5 9 -28 69 -51 132 -23 63 -45 124 -50 135 -4 11 -11 30 -14 43 -6 22
-7 22 -223 22 -444 1 -1113 13 -1425 25 -106 4 -139 3 -142 -7z"/>
<path d="M13577 9753 c-3 -2 -464 -14 -692 -18 -99 -2 -327 -4 -506 -4 l-327
-1 -6 -26 c-4 -14 -15 -45 -26 -68 -10 -22 -35 -86 -55 -141 -21 -55 -45 -120
-55 -145 -9 -25 -34 -90 -55 -145 -20 -55 -45 -118 -55 -140 -10 -22 -21 -51
-25 -65 -4 -14 -13 -38 -20 -55 -14 -34 -28 -67 -29 -75 -2 -8 -58 -152 -71
-185 -18 -41 -59 -149 -61 -155 0 -3 -6 -18 -13 -35 -7 -16 -43 -111 -81 -210
-38 -100 -78 -202 -89 -228 -11 -26 -21 -51 -22 -55 -2 -11 -8 -27 -80 -212
-37 -96 -65 -177 -64 -179 2 -1 72 -4 156 -4 l153 -1 19 37 c10 20 20 42 21
49 2 12 38 109 67 183 7 17 13 32 13 35 1 3 15 41 33 85 17 44 58 153 92 241
33 89 65 174 72 190 6 16 15 38 19 49 4 11 35 92 69 180 33 88 61 166 61 172
0 14 29 38 37 30 3 -4 7 -41 9 -84 7 -183 19 -632 25 -985 2 -98 6 -178 9
-179 3 0 180 -1 393 -2 251 -1 391 2 395 8 4 6 7 105 8 220 6 679 28 1375 45
1438 11 43 69 107 134 150 64 42 184 83 295 102 19 3 58 10 85 15 113 21 233
36 312 39 30 1 33 4 40 44 9 52 9 64 0 104 l-6 33 -111 -3 c-62 -1 -112 -3
-113 -4z"/>
<path d="M2089 6971 c-3 -166 1 -955 6 -959 3 -3 23 -6 45 -6 l40 -1 1 70 c0
39 0 234 0 434 -1 200 1 362 3 360 4 -4 342 -667 361 -706 16 -35 71 -32 88 5
6 15 14 29 17 32 3 3 79 153 170 333 l165 328 3 -428 2 -428 48 3 48 4 -1 491
0 492 -65 0 -65 0 -24 -45 c-32 -61 -176 -342 -264 -515 -39 -77 -73 -142 -75
-145 -4 -6 -27 33 -23 39 1 2 -1 7 -6 10 -4 3 -34 58 -66 121 -33 63 -64 121
-69 128 -6 6 -7 12 -3 12 4 0 2 6 -4 14 -6 7 -52 94 -102 192 -50 98 -93 181
-95 183 -3 3 -34 5 -69 6 -64 2 -65 1 -66 -24z"/>
<path d="M3429 6989 c-6 -3 -9 -31 -8 -61 1 -30 0 -59 -4 -65 -4 -6 -4 -13 -1
-15 6 -7 6 -456 0 -467 -3 -4 -3 -11 0 -13 3 -3 6 -86 7 -184 l2 -178 280 1
c154 1 287 2 296 2 13 1 16 10 14 39 l-2 37 -249 1 -249 2 -1 190 0 190 210 0
c116 0 223 1 239 1 24 1 27 5 27 36 0 21 -5 36 -12 37 -7 0 -114 2 -238 2
l-225 2 0 184 0 185 235 1 c129 1 242 2 251 3 11 1 15 10 13 34 -1 17 -2 34
-3 37 -2 7 -570 6 -582 -1z"/>
<path d="M4306 6991 c-2 -3 -4 -225 -4 -493 l0 -488 27 -1 c14 -1 108 -1 209
-1 244 0 311 16 383 93 86 90 86 240 -1 331 -27 29 -96 68 -120 68 -8 0 13 14
48 31 34 16 62 34 62 39 0 5 6 15 13 22 25 26 48 100 46 152 -4 102 -59 179
-158 223 -54 25 -64 26 -279 27 -123 1 -225 0 -226 -3z m448 -90 c83 -33 119
-85 118 -171 0 -72 -29 -122 -91 -158 -45 -27 -49 -27 -216 -27 l-170 0 0 180
c-1 99 0 183 2 186 5 11 327 2 357 -10z m-32 -445 c110 -18 174 -92 166 -192
-7 -87 -66 -153 -151 -170 -19 -3 -282 -8 -327 -5 -14 1 -16 26 -15 184 0 167
2 182 18 187 25 7 259 4 309 -4z"/>
<path d="M5278 6995 c0 0 -2 -222 -3 -492 -1 -492 -1 -493 19 -494 26 -1 546
-1 564 0 7 1 12 16 12 40 l0 39 -202 0 c-112 1 -225 1 -253 1 l-50 1 2 177 c0
98 2 183 2 189 1 8 70 11 232 11 248 1 253 2 240 52 l-7 26 -230 0 c-170 0
-230 3 -234 12 -4 10 -5 307 -1 349 1 7 81 10 251 10 l250 -1 0 38 c0 20 -3
38 -7 38 -6 1 -567 5 -585 4z"/>
<path d="M6155 6503 c0 -432 2 -493 15 -494 18 -1 510 -1 527 0 9 1 12 38 4
73 0 3 -100 6 -221 6 -122 0 -223 2 -227 5 -3 3 -5 207 -5 452 1 245 -2 446
-6 446 -4 1 -25 2 -47 3 l-40 2 0 -493z"/>
<path d="M7248 6520 c-2 -262 -2 -484 0 -492 3 -17 64 -29 84 -17 8 5 11 128
10 434 0 234 1 425 3 423 2 -2 46 -86 98 -188 51 -102 102 -201 113 -220 10
-19 19 -37 19 -40 1 -5 22 -46 102 -200 37 -71 41 -75 73 -75 33 0 33 0 134
200 56 110 104 202 109 203 4 2 7 9 7 15 0 7 13 37 30 67 16 30 48 94 71 143
23 48 44 85 47 82 3 -2 5 -194 5 -425 -1 -468 -8 -420 65 -423 l27 -1 1 492
c0 341 -3 492 -10 495 -6 2 -36 3 -66 3 l-55 -1 -46 -90 c-26 -49 -80 -155
-120 -235 -41 -80 -77 -146 -81 -148 -5 -2 -8 -10 -8 -17 0 -8 -13 -36 -28
-62 -15 -26 -39 -72 -52 -100 -14 -29 -27 -53 -30 -53 -8 0 -40 60 -40 75 0 7
-3 15 -7 17 -5 2 -23 34 -42 71 -18 38 -53 104 -76 148 -24 43 -41 79 -38 79
3 0 1 6 -5 13 -5 6 -42 75 -82 152 -40 77 -74 142 -76 144 -2 3 -33 5 -69 6
l-65 2 -2 -477z"/>
<path d="M8790 6956 c-10 -23 -41 -111 -70 -196 -28 -85 -54 -162 -57 -170
-10 -24 -83 -234 -88 -250 -2 -8 -29 -85 -59 -172 l-54 -156 39 -4 c22 -2 44
-1 49 2 5 3 23 46 40 95 18 50 34 97 38 105 3 8 6 18 7 23 2 4 4 9 5 12 1 3 3
9 4 14 0 5 4 13 8 17 9 9 397 9 406 0 3 -4 25 -64 48 -134 l41 -127 40 -5 c22
-3 45 -4 50 -3 10 4 -28 120 -224 688 -36 105 -72 213 -80 240 -9 28 -18 52
-20 55 -2 3 -27 5 -55 6 -49 0 -50 0 -68 -40z m170 -381 c34 -99 64 -189 67
-200 4 -19 0 -20 -169 -19 -153 1 -173 3 -172 17 1 9 39 127 85 261 l83 245
22 -62 c11 -34 49 -143 84 -242z"/>
<path d="M9471 6990 c-7 -3 -10 -181 -10 -492 l1 -486 26 -4 c15 -2 36 -1 47
2 20 5 20 13 20 185 l0 180 54 54 54 54 26 -29 c14 -16 44 -51 66 -78 22 -27
45 -54 50 -60 6 -6 42 -49 80 -96 38 -47 74 -90 80 -96 16 -18 79 -96 85 -105
3 -4 31 -9 63 -12 65 -5 74 7 34 46 -12 12 -38 42 -57 67 -19 24 -42 52 -50
61 -36 38 -70 79 -70 85 0 4 -6 12 -14 18 -8 6 -62 69 -121 140 l-106 129 69
71 c223 226 350 361 346 365 -3 3 -30 5 -61 6 -51 0 -60 -3 -87 -31 -335 -347
-430 -444 -435 -444 -3 0 -6 100 -5 223 0 122 -2 229 -5 237 -6 15 -61 22 -80
10z"/>
<path d="M10399 6985 c-6 -44 -4 -962 2 -970 5 -6 114 -10 296 -9 l288 0 3 42
3 41 -250 -2 -250 -2 -3 130 c-2 72 -2 158 0 192 l3 62 228 -1 c126 0 233 2
238 5 7 4 9 32 4 68 -1 3 -103 5 -227 5 -124 -1 -230 1 -235 4 -8 6 -12 95
-10 271 l1 95 248 0 247 0 3 39 3 40 -296 0 c-189 0 -295 -4 -296 -10z"/>
<path d="M11277 6985 c-5 -19 -1 -965 5 -971 4 -3 23 -6 45 -7 l38 -2 3 208
c2 174 5 207 17 208 8 0 35 0 60 0 133 0 117 8 179 -88 30 -49 66 -101 78
-117 13 -16 26 -36 30 -45 4 -9 31 -49 60 -90 l53 -74 53 -1 c28 -1 52 3 52 8
0 5 -11 24 -25 42 -14 18 -25 37 -25 43 0 6 -4 11 -8 11 -4 0 -15 12 -24 28
-9 15 -24 36 -32 47 -60 77 -163 231 -157 237 3 3 23 9 44 12 78 12 152 69
193 147 25 49 30 157 9 222 -25 81 -95 151 -170 172 -52 15 -65 16 -272 18
-133 2 -204 -1 -206 -8z m459 -96 c50 -26 97 -82 103 -122 4 -34 3 -100 -2
-122 -3 -11 -6 -25 -6 -30 -1 -6 -18 -29 -38 -52 -34 -36 -48 -45 -103 -61 -8
-3 -84 -7 -167 -9 l-153 -5 0 214 0 214 159 -1 c148 -1 162 -3 207 -26z"/>
<path d="M869 5362 c-2 -9 -6 -123 -14 -332 -10 -304 -14 -319 -95 -400 -111
-110 -359 -189 -704 -224 -45 -5 -58 -31 -53 -105 2 -35 10 -67 17 -71 7 -4
33 -6 59 -4 307 22 1828 21 1962 -1 34 -6 57 13 64 52 5 30 -7 108 -18 120 -5
5 -29 8 -108 17 -225 23 -493 102 -561 163 -10 9 -18 12 -18 8 0 -15 -98 92
-116 126 -19 38 -22 62 -30 304 -10 309 -11 340 -13 346 -1 9 -371 9 -372 1z"/>
<path d="M2720 5358 c0 -5 22 -64 49 -131 27 -67 83 -210 125 -317 42 -107 81
-204 86 -215 5 -11 38 -94 74 -185 36 -92 71 -166 79 -168 22 -5 32 14 85 158
28 74 55 146 61 160 23 54 261 691 261 700 0 5 -181 8 -410 8 -239 -1 -410 -5
-410 -10z"/>
<path d="M4919 5361 c0 -3 -2 -64 -4 -136 -14 -483 -15 -496 -34 -540 -11 -24
-32 -56 -48 -72 -29 -30 -96 -80 -101 -75 -1 1 -18 -4 -37 -12 -60 -25 -288
-82 -370 -92 -22 -2 -47 -6 -55 -9 -13 -3 -134 -15 -196 -19 -12 -1 -28 -7
-36 -13 -16 -14 -22 -79 -13 -133 l6 -35 52 2 c560 21 2193 21 2515 -1 39 -3
45 0 54 23 9 25 4 138 -7 149 -2 3 -19 6 -37 7 -73 6 -236 24 -268 30 -8 2
-35 8 -60 14 -25 5 -58 12 -75 15 -54 10 -69 14 -115 27 -25 7 -48 13 -52 15
-5 1 -10 3 -13 4 -3 1 -8 3 -12 4 -34 7 -126 60 -159 92 -38 37 -72 100 -73
134 0 8 -2 65 -5 125 -8 177 -18 427 -18 466 l0 37 -419 0 c-231 -1 -419 -3
-420 -7z"/>
<path d="M8034 5359 c-6 -10 -8 -68 -19 -389 -3 -96 -8 -188 -11 -205 -18 -88
-92 -165 -212 -223 -44 -20 -85 -39 -93 -41 -8 -2 -43 -12 -79 -23 -72 -21
-91 -26 -135 -33 -16 -3 -52 -10 -80 -15 -27 -5 -75 -12 -105 -15 -30 -4 -64
-8 -75 -9 -11 -2 -25 -4 -32 -5 -28 -3 -40 -133 -14 -164 8 -11 27 -14 64 -11
291 21 1689 21 1954 0 52 -4 52 -4 63 30 13 38 9 98 -8 130 -8 16 -22 21 -63
23 -29 1 -55 4 -59 6 -3 2 -30 6 -60 9 -30 4 -62 8 -70 10 -8 1 -33 6 -55 10
-22 4 -53 12 -70 16 -16 5 -41 12 -55 14 -73 15 -216 77 -262 114 -92 73 -128
134 -134 226 -3 55 -10 275 -15 477 l-2 75 -183 1 c-106 1 -186 -3 -190 -8z"/>
<path d="M9880 5361 c0 -3 21 -58 46 -121 25 -63 57 -142 69 -175 13 -33 66
-168 119 -300 53 -132 96 -246 96 -252 0 -7 5 -13 10 -13 6 0 10 -7 10 -15 0
-8 12 -44 26 -80 18 -46 31 -65 44 -65 18 0 28 21 111 243 17 45 37 96 44 112
7 17 24 62 38 100 14 39 30 81 35 95 6 14 32 81 58 150 26 69 56 148 66 175
11 28 28 73 38 101 l18 52 -414 -1 c-228 0 -414 -3 -414 -6z"/>
<path d="M12082 5356 c0 -6 -4 -101 -7 -211 -3 -110 -7 -245 -9 -300 -4 -123
-18 -175 -58 -221 -43 -49 -160 -113 -238 -129 -8 -2 -76 -17 -150 -33 -74
-17 -160 -33 -190 -37 -73 -8 -136 -15 -184 -19 -21 -2 -42 -8 -48 -14 -12
-12 -18 -105 -9 -140 7 -25 10 -27 62 -25 655 21 2269 21 2496 -1 49 -5 62 2
72 40 7 27 -2 121 -13 131 -3 3 -26 7 -53 9 -26 2 -64 6 -83 8 -19 3 -60 8
-90 11 -30 4 -98 16 -150 27 -52 11 -108 22 -125 25 -104 17 -256 88 -303 142
-54 60 -57 74 -67 311 -5 112 -8 190 -15 426 0 16 -836 16 -838 0z"/>
</g>
</svg>
