<svg width="259" height="360" viewBox="0 0 259 360" fill="none" xmlns="http://www.w3.org/2000/svg">
<path d="M221.632 45.5347C221.632 45.5347 194.261 15.4738 183.241 1H162.979C172.577 19.185 196.038 52.2149 204.57 64.4619C213.616 77.4479 217.367 106.77 196.038 119.017C162.979 138 149.542 156.426 151.249 212.54C151.249 235.715 143.784 265.239 139.518 277.115C126.721 312.742 74.4669 250.394 67.0019 238.147C55.8199 219.802 15.9962 148.485 0 109.146V160.235C0 179.431 26.4781 225.9 28.6109 230.353C30.3172 233.916 60.7402 281.981 65.9355 293.815C73.57 311.206 96.6482 349.261 125.655 357.277C161.913 367.298 180.042 331.67 180.042 300.496V220.333C180.042 201.113 197.105 161.325 224.831 143.511C252.558 125.697 258.957 108.997 257.89 93.4094C257.041 80.9932 221.632 45.5347 221.632 45.5347Z" fill="#496CAD" stroke="#496CAD"/>
<path d="M137.655 47.4977C139.78 29.6433 129.862 11.045 123.841 1.74585H0C0.372833 16.6625 0 49.8521 0 67.7521C0 90.2967 64.3363 181.406 87.7132 199.26C111.09 217.114 121.716 152.392 121.716 152.392C121.716 152.392 135.571 65.0053 137.655 47.4977Z" fill="#0B2149" stroke="#0B2149"/>
<path d="M160.722 54.9813C163.195 34.2065 151.656 12.5661 144.65 1.74585H0.191666C0.191666 18.5271 1.52588e-05 58.0563 1.52588e-05 78.3529C1.52588e-05 104.586 75.4159 210.792 102.615 231.567C129.814 252.342 142.177 177.033 142.177 177.033C142.177 177.033 158.298 75.3526 160.722 54.9813Z" stroke="#9CADCC"/>
</svg>
