<svg width="151" height="197" viewBox="0 0 151 197" fill="none" xmlns="http://www.w3.org/2000/svg">
<path d="M21.8931 171.423C21.8931 171.423 37.6178 187.766 43.9485 195.636L55.5888 195.636C50.075 185.749 36.5967 167.791 31.6955 161.133C26.4986 154.073 24.3437 138.131 36.5967 131.473C55.5888 121.152 63.3083 111.134 62.328 80.6268C62.328 68.0271 66.6166 51.9755 69.0672 45.5189C76.4189 26.1491 106.439 60.0463 110.727 66.7047C117.151 76.6784 141.81 118.482 151 139.869L151 107.794C151 97.3386 134.008 73.3631 132.783 70.9419C131.802 69.0049 114.325 42.8731 111.34 36.4392C106.954 26.9845 93.6957 6.29485 77.0316 1.93662C56.2015 -3.51116 45.7865 15.8587 45.7865 32.8074L45.7865 76.3896C45.7865 86.8389 35.9841 108.471 20.0552 118.156C4.12627 127.841 0.450333 136.921 1.063 145.395C1.55103 152.145 21.8931 171.423 21.8931 171.423Z" fill="#496CAD" stroke="#496CAD"/>
<path d="M68.5577 171.347C67.353 181.11 72.9247 190.915 76.3379 196L147.857 196C148.259 188.067 148.307 170.126 146.862 160.363C145.055 148.159 110.119 98.1211 96.8676 88.3576C83.6162 78.5942 77.5928 113.987 77.5928 113.987C77.5928 113.987 69.739 161.773 68.5577 171.347Z" fill="#0B2149" stroke="#0B2149"/>
<path d="M56.9953 166.128C55.5617 177.643 62.192 190.003 66.2538 196L150.999 196L150.999 153.235C150.999 138.68 106.454 79.7668 90.6845 68.252C74.9151 56.7372 67.7472 98.4783 67.7472 98.4783C67.7472 98.4783 58.401 154.837 56.9953 166.128Z" stroke="#9CADCC"/>
</svg>
