<svg width="164" height="229" viewBox="0 0 164 229" fill="none" xmlns="http://www.w3.org/2000/svg">
<path d="M140.023 29.2385C140.023 29.2385 122.731 10.1775 115.769 1H102.968C109.031 12.5307 123.854 33.4742 129.244 41.2398C134.959 49.474 137.328 68.0663 123.854 75.8319C102.968 87.8685 94.4784 99.5522 95.5564 135.133C95.5564 149.828 90.8402 168.548 88.1452 176.078C80.0604 198.669 47.047 159.135 42.3307 151.37C35.2662 139.738 10.1062 94.5169 7.62939e-05 69.5729V101.968C7.62939e-05 114.139 16.7285 143.604 18.076 146.428C19.1539 148.687 38.3747 179.164 41.657 186.668C46.4803 197.695 61.0608 221.825 79.3866 226.908C102.294 233.261 113.747 210.671 113.747 190.904V140.074C113.747 127.888 124.527 102.658 142.045 91.3631C159.562 80.0677 163.604 69.4783 162.931 59.5948C162.394 51.722 140.023 29.2385 140.023 29.2385Z" fill="#496CAD" stroke="#496CAD"/>
<path d="M86.9678 30.4831C88.3104 19.1621 82.0447 7.36929 78.2405 1.4729H-7.62939e-05C0.235474 10.9312 -7.62939e-05 31.976 -7.62939e-05 43.326C-7.62939e-05 57.621 40.6465 115.391 55.4156 126.712C70.1847 138.033 76.8979 96.9944 76.8979 96.9944C76.8979 96.9944 85.6512 41.5844 86.9678 30.4831Z" fill="#0B2149" stroke="#0B2149"/>
<path d="M101.542 35.2283C103.104 22.0555 95.8137 8.33376 91.3875 1.4729H0.121231C0.121231 12.1135 0.000144958 37.1781 0.000144958 50.0478C0.000144958 66.6814 47.6466 134.025 64.8305 147.198C82.0145 160.37 89.8254 112.619 89.8254 112.619C89.8254 112.619 100.01 48.1454 101.542 35.2283Z" stroke="#9CADCC"/>
</svg>
